<mxfile host="app.diagrams.net" modified="2022-06-14T15:35:16.920Z" agent="5.0 (Windows NT 10.0; Win64; x64) AppleWebKit/537.36 (KHTML, like Gecko) Chrome/102.0.5005.124 Safari/537.36 Edg/102.0.1245.41" etag="wkF6Xg_uszR6oDI68u_H" version="20.0.0" type="github">
  <diagram id="6P3FIm2r0GDA6tXvAjxY" name="Page-1">
    <mxGraphModel dx="1247" dy="706" grid="1" gridSize="10" guides="1" tooltips="1" connect="1" arrows="1" fold="1" page="1" pageScale="1" pageWidth="827" pageHeight="1169" math="0" shadow="0">
      <root>
        <mxCell id="0" />
        <mxCell id="1" parent="0" />
        <mxCell id="n9D6QChpnzas4zdLpkA4-11" value="" style="rounded=1;whiteSpace=wrap;html=1;" parent="1" vertex="1">
          <mxGeometry x="245" y="210" width="555" height="480" as="geometry" />
        </mxCell>
        <mxCell id="n9D6QChpnzas4zdLpkA4-13" value="" style="html=1;verticalLabelPosition=bottom;align=center;labelBackgroundColor=#ffffff;verticalAlign=top;strokeWidth=2;strokeColor=#FFB366;shadow=0;dashed=0;shape=mxgraph.ios7.icons.cloud;" parent="1" vertex="1">
          <mxGeometry x="260" y="200" width="70" height="33" as="geometry" />
        </mxCell>
        <mxCell id="n9D6QChpnzas4zdLpkA4-14" value="AWS" style="text;html=1;align=center;verticalAlign=middle;resizable=0;points=[];autosize=1;strokeColor=none;fillColor=none;" parent="1" vertex="1">
          <mxGeometry x="275" y="213" width="40" height="20" as="geometry" />
        </mxCell>
        <mxCell id="n9D6QChpnzas4zdLpkA4-15" value="" style="fontColor=#0066CC;verticalAlign=top;verticalLabelPosition=bottom;labelPosition=center;align=center;html=1;outlineConnect=0;fillColor=#CCCCCC;strokeColor=#6881B3;gradientColor=none;gradientDirection=north;strokeWidth=2;shape=mxgraph.networks.pc;" parent="1" vertex="1">
          <mxGeometry x="4" y="310" width="80" height="60" as="geometry" />
        </mxCell>
        <mxCell id="n9D6QChpnzas4zdLpkA4-16" value="" style="shape=flexArrow;endArrow=classic;startArrow=classic;html=1;rounded=0;" parent="1" edge="1">
          <mxGeometry width="100" height="100" relative="1" as="geometry">
            <mxPoint x="110" y="333.63" as="sourcePoint" />
            <mxPoint x="210" y="333.63" as="targetPoint" />
          </mxGeometry>
        </mxCell>
        <mxCell id="n9D6QChpnzas4zdLpkA4-17" value="" style="sketch=0;aspect=fixed;html=1;points=[];align=center;image;fontSize=12;image=img/lib/mscae/Key.svg;strokeColor=#FFB366;rotation=-90;" parent="1" vertex="1">
          <mxGeometry x="144" y="270" width="36" height="58.06" as="geometry" />
        </mxCell>
        <mxCell id="n9D6QChpnzas4zdLpkA4-7" value="" style="sketch=0;outlineConnect=0;fontColor=#232F3E;gradientColor=none;fillColor=#B0084D;strokeColor=none;dashed=0;verticalLabelPosition=bottom;verticalAlign=top;align=center;html=1;fontSize=12;fontStyle=0;aspect=fixed;pointerEvents=1;shape=mxgraph.aws4.endpoint;" parent="1" vertex="1">
          <mxGeometry x="220" y="310" width="48.25" height="48.25" as="geometry" />
        </mxCell>
        <mxCell id="n9D6QChpnzas4zdLpkA4-8" value="API Gateway endpoint" style="text;html=1;align=center;verticalAlign=middle;resizable=0;points=[];autosize=1;strokeColor=none;fillColor=none;" parent="1" vertex="1">
          <mxGeometry x="188.25" y="358.25" width="130" height="20" as="geometry" />
        </mxCell>
        <mxCell id="n9D6QChpnzas4zdLpkA4-18" value="Client" style="text;html=1;align=center;verticalAlign=middle;resizable=0;points=[];autosize=1;strokeColor=none;fillColor=none;" parent="1" vertex="1">
          <mxGeometry x="20" y="289.03" width="50" height="20" as="geometry" />
        </mxCell>
        <mxCell id="n9D6QChpnzas4zdLpkA4-19" value="API Key" style="text;html=1;align=center;verticalAlign=middle;resizable=0;points=[];autosize=1;strokeColor=none;fillColor=none;" parent="1" vertex="1">
          <mxGeometry x="132" y="260" width="60" height="20" as="geometry" />
        </mxCell>
        <mxCell id="n9D6QChpnzas4zdLpkA4-20" value="" style="shape=flexArrow;endArrow=classic;startArrow=classic;html=1;rounded=0;" parent="1" edge="1">
          <mxGeometry width="100" height="100" relative="1" as="geometry">
            <mxPoint x="278.25" y="333.63" as="sourcePoint" />
            <mxPoint x="368.25" y="333.63" as="targetPoint" />
          </mxGeometry>
        </mxCell>
        <mxCell id="n9D6QChpnzas4zdLpkA4-3" value="" style="outlineConnect=0;dashed=0;verticalLabelPosition=bottom;verticalAlign=top;align=center;html=1;shape=mxgraph.aws3.api_gateway;fillColor=#D9A741;gradientColor=none;" parent="1" vertex="1">
          <mxGeometry x="385" y="294.13" width="61.5" height="80" as="geometry" />
        </mxCell>
        <mxCell id="n9D6QChpnzas4zdLpkA4-4" value="API Gateway" style="text;html=1;align=center;verticalAlign=middle;resizable=0;points=[];autosize=1;strokeColor=none;fillColor=none;" parent="1" vertex="1">
          <mxGeometry x="370.75" y="274.13" width="90" height="20" as="geometry" />
        </mxCell>
        <mxCell id="n9D6QChpnzas4zdLpkA4-22" value="" style="sketch=0;points=[[0,0,0],[0.25,0,0],[0.5,0,0],[0.75,0,0],[1,0,0],[0,1,0],[0.25,1,0],[0.5,1,0],[0.75,1,0],[1,1,0],[0,0.25,0],[0,0.5,0],[0,0.75,0],[1,0.25,0],[1,0.5,0],[1,0.75,0]];points=[[0,0,0],[0.25,0,0],[0.5,0,0],[0.75,0,0],[1,0,0],[0,1,0],[0.25,1,0],[0.5,1,0],[0.75,1,0],[1,1,0],[0,0.25,0],[0,0.5,0],[0,0.75,0],[1,0.25,0],[1,0.5,0],[1,0.75,0]];outlineConnect=0;fontColor=#232F3E;gradientColor=#F34482;gradientDirection=north;fillColor=#BC1356;strokeColor=#ffffff;dashed=0;verticalLabelPosition=bottom;verticalAlign=top;align=center;html=1;fontSize=12;fontStyle=0;aspect=fixed;shape=mxgraph.aws4.resourceIcon;resIcon=mxgraph.aws4.cloudwatch_2;" parent="1" vertex="1">
          <mxGeometry x="340" y="556" width="58" height="58" as="geometry" />
        </mxCell>
        <mxCell id="n9D6QChpnzas4zdLpkA4-10" value="Cloudwatch" style="text;html=1;align=center;verticalAlign=middle;resizable=0;points=[];autosize=1;strokeColor=none;fillColor=none;" parent="1" vertex="1">
          <mxGeometry x="330" y="536" width="80" height="20" as="geometry" />
        </mxCell>
        <mxCell id="n9D6QChpnzas4zdLpkA4-1" value="" style="outlineConnect=0;dashed=0;verticalLabelPosition=bottom;verticalAlign=top;align=center;html=1;shape=mxgraph.aws3.s3;fillColor=#E05243;gradientColor=none;" parent="1" vertex="1">
          <mxGeometry x="634.13" y="460" width="60" height="67" as="geometry" />
        </mxCell>
        <mxCell id="n9D6QChpnzas4zdLpkA4-2" value="S3 Bucket" style="text;html=1;align=center;verticalAlign=middle;resizable=0;points=[];autosize=1;strokeColor=none;fillColor=none;" parent="1" vertex="1">
          <mxGeometry x="670" y="440" width="70" height="20" as="geometry" />
        </mxCell>
        <mxCell id="pQMU_lWyYAscjyAWcqUc-1" value="" style="outlineConnect=0;dashed=0;verticalLabelPosition=bottom;verticalAlign=top;align=center;html=1;shape=mxgraph.aws3.lambda;fillColor=#F58534;gradientColor=none;" parent="1" vertex="1">
          <mxGeometry x="610" y="308.06" width="58.25" height="61.5" as="geometry" />
        </mxCell>
        <mxCell id="pQMU_lWyYAscjyAWcqUc-2" value="Lambda Function" style="text;html=1;align=center;verticalAlign=middle;resizable=0;points=[];autosize=1;strokeColor=none;fillColor=none;" parent="1" vertex="1">
          <mxGeometry x="584.13" y="288.06" width="110" height="20" as="geometry" />
        </mxCell>
        <mxCell id="pQMU_lWyYAscjyAWcqUc-4" value="" style="shape=flexArrow;endArrow=classic;startArrow=classic;html=1;rounded=0;startWidth=12.5;startSize=6.466666666666667;endWidth=12.5;endSize=6.466666666666667;entryX=0;entryY=0.5;entryDx=0;entryDy=0;entryPerimeter=0;" parent="1" target="pQMU_lWyYAscjyAWcqUc-1" edge="1">
          <mxGeometry width="100" height="100" relative="1" as="geometry">
            <mxPoint x="450" y="337.93" as="sourcePoint" />
            <mxPoint x="530" y="342.06" as="targetPoint" />
          </mxGeometry>
        </mxCell>
        <mxCell id="pQMU_lWyYAscjyAWcqUc-5" value="validate" style="text;html=1;align=center;verticalAlign=middle;resizable=0;points=[];autosize=1;strokeColor=none;fillColor=none;rotation=0;" parent="1" vertex="1">
          <mxGeometry x="500" y="310" width="60" height="20" as="geometry" />
        </mxCell>
        <mxCell id="XIYBBOgNvuvRrmOBbx8r-1" value="POST" style="text;html=1;align=center;verticalAlign=middle;resizable=0;points=[];autosize=1;strokeColor=none;fillColor=none;" parent="1" vertex="1">
          <mxGeometry x="132" y="338.25" width="50" height="20" as="geometry" />
        </mxCell>
        <mxCell id="elHhkuqcDFF-n59VeyeQ-3" value="" style="endArrow=classic;html=1;rounded=0;" parent="1" edge="1">
          <mxGeometry width="50" height="50" relative="1" as="geometry">
            <mxPoint x="400.75" y="390" as="sourcePoint" />
            <mxPoint x="370.75" y="530" as="targetPoint" />
          </mxGeometry>
        </mxCell>
        <mxCell id="elHhkuqcDFF-n59VeyeQ-4" value="" style="endArrow=classic;html=1;rounded=0;" parent="1" edge="1">
          <mxGeometry width="50" height="50" relative="1" as="geometry">
            <mxPoint x="652" y="374.13" as="sourcePoint" />
            <mxPoint x="660" y="460" as="targetPoint" />
          </mxGeometry>
        </mxCell>
        <mxCell id="elHhkuqcDFF-n59VeyeQ-5" value="" style="endArrow=classic;html=1;rounded=0;entryX=0.315;entryY=0.771;entryDx=0;entryDy=0;entryPerimeter=0;exitX=0.619;exitY=0.806;exitDx=0;exitDy=0;exitPerimeter=0;" parent="1" target="n9D6QChpnzas4zdLpkA4-11" edge="1">
          <mxGeometry width="50" height="50" relative="1" as="geometry">
            <mxPoint x="620.0975000000001" y="510.1600000000001" as="sourcePoint" />
            <mxPoint x="560.0000000000001" y="603" as="targetPoint" />
          </mxGeometry>
        </mxCell>
        <mxCell id="elHhkuqcDFF-n59VeyeQ-6" value="metric" style="text;html=1;align=center;verticalAlign=middle;resizable=0;points=[];autosize=1;strokeColor=none;fillColor=none;" parent="1" vertex="1">
          <mxGeometry x="520" y="536" width="50" height="20" as="geometry" />
        </mxCell>
        <mxCell id="elHhkuqcDFF-n59VeyeQ-7" value="log group" style="text;html=1;align=center;verticalAlign=middle;resizable=0;points=[];autosize=1;strokeColor=none;fillColor=none;" parent="1" vertex="1">
          <mxGeometry x="315" y="440" width="70" height="20" as="geometry" />
        </mxCell>
      </root>
    </mxGraphModel>
  </diagram>
</mxfile>
